<svg width="35" height="40" viewBox="0 0 35 40" fill="none" xmlns="http://www.w3.org/2000/svg">
<path d="M34.5395 15.5551L17.9605 0.357692C17.4079 -0.148887 16.5789 -0.102835 16.0724 0.403744L0.414474 15.6011C0.138158 15.8314 0 16.1998 0 16.5682V38.3972C0 39.1801 0.598684 39.7787 1.38158 39.7787H12.8947C13.6776 39.7787 14.2763 39.1801 14.2763 38.3972V28.2656H20.7237V38.3972C20.7237 39.1801 21.3224 39.7787 22.1053 39.7787H33.6184C34.4013 39.7787 35 39.1801 35 38.3972V16.5682C35 16.1998 34.8158 15.8314 34.5395 15.5551ZM32.2368 37.0156H23.4868V26.884C23.4868 26.1011 22.8882 25.5024 22.1053 25.5024H12.8947C12.1118 25.5024 11.5132 26.1011 11.5132 26.884V37.0156H2.76316V17.1669L17.0855 3.30506L32.2368 17.1669V37.0156Z" fill="url(#paint0_linear)"/>
<defs>
<linearGradient id="paint0_linear" x1="17.5" y1="-0.0108214" x2="17.5" y2="39.7788" gradientUnits="userSpaceOnUse">
<stop stop-color="#00EFD1"/>
<stop offset="1" stop-color="#00ACEA"/>
</linearGradient>
</defs>
</svg>
