<svg width="35" height="43" viewBox="0 0 35 43" fill="none" xmlns="http://www.w3.org/2000/svg">
<path d="M33.4559 6.79412H30.8824V1.54412C30.8824 0.669118 30.2132 0 29.3382 0H4.94118C2.21324 0 0 2.21323 0 4.94118V37.5735C0 40.3015 2.21324 42.5147 4.94118 42.5147H33.4559C34.3309 42.5147 35 41.8456 35 40.9706V8.33824C35 7.46324 34.3309 6.79412 33.4559 6.79412ZM4.94118 3.08824H27.7941V6.79412H4.94118C3.86029 6.79412 3.08824 6.02206 3.08824 4.94118C3.08824 3.91176 3.91177 3.08824 4.94118 3.08824ZM10.9118 9.88235H15.8529V21.1544L14.1544 20.125C13.6397 19.8162 13.0735 19.8162 12.5588 20.125L10.8603 21.1544V9.88235H10.9118ZM31.9118 39.4265H4.94118C3.91177 39.4265 3.08824 38.6029 3.08824 37.5735V9.52206C3.65441 9.72794 4.27206 9.88235 4.94118 9.88235H7.82353V23.8824C7.82353 24.4485 8.13235 24.9632 8.59559 25.2206C9.05882 25.4779 9.67647 25.4779 10.1397 25.2206L13.3824 23.2647L16.625 25.2206C16.8824 25.375 17.1397 25.4265 17.3971 25.4265C17.6544 25.4265 17.9118 25.375 18.1691 25.2206C18.6324 24.9632 18.9412 24.4485 18.9412 23.8824V9.88235H31.9118V39.4265Z" fill="url(#paint0_linear)"/>
<defs>
<linearGradient id="paint0_linear" x1="17.5" y1="0.000102941" x2="17.5" y2="42.5146" gradientUnits="userSpaceOnUse">
<stop stop-color="#00EFD1"/>
<stop offset="1" stop-color="#00ACEA"/>
</linearGradient>
</defs>
</svg>
