<svg width="35" height="36" viewBox="0 0 35 36" fill="none" xmlns="http://www.w3.org/2000/svg">
<path d="M23.7026 11.1646H11.2975C10.5443 11.1646 9.96838 11.7405 9.96838 12.4937C9.96838 13.2468 10.5443 13.8228 11.2975 13.8228H23.7026C24.4557 13.8228 25.0317 13.2468 25.0317 12.4937C25.0317 11.7405 24.4557 11.1646 23.7026 11.1646Z" fill="url(#paint0_linear)"/>
<path d="M23.7026 16.481H11.2975C10.5443 16.481 9.96838 17.057 9.96838 17.8101C9.96838 18.5633 10.5443 19.1392 11.2975 19.1392H23.7026C24.4557 19.1392 25.0317 18.5633 25.0317 17.8101C25.0317 17.057 24.4557 16.481 23.7026 16.481Z" fill="url(#paint1_linear)"/>
<path d="M23.7026 21.7975H11.2975C10.5443 21.7975 9.96838 22.3734 9.96838 23.1266C9.96838 23.8797 10.5443 24.4557 11.2975 24.4557H23.7026C24.4557 24.4557 25.0317 23.8797 25.0317 23.1266C25.0317 22.3734 24.4557 21.7975 23.7026 21.7975Z" fill="url(#paint2_linear)"/>
<path d="M17.5 0C7.84177 0 0 7.84177 0 17.5C0 19.6709 0.398734 21.8418 1.1962 23.8797C1.81646 25.4304 2.61392 26.8924 3.63291 28.1772L1.24051 33.7595C1.06329 34.2025 1.10759 34.7342 1.41772 35.0886C1.68354 35.3987 2.03797 35.5759 2.48101 35.5759C2.56962 35.5759 2.61392 35.5759 2.70253 35.5759L11.7405 34.0253C13.557 34.6899 15.462 35 17.5 35C27.1582 35 35 27.1582 35 17.5C35 7.84177 27.1582 0 17.5 0ZM17.5 32.3418C15.6835 32.3418 13.9557 32.0316 12.3608 31.4114C12.1392 31.3228 11.8734 31.3228 11.6519 31.3228L4.6519 32.5633L6.37975 28.4873C6.60127 28 6.51266 27.4684 6.15823 27.1139C5.09494 25.9177 4.25316 24.5 3.63291 22.9494C2.96835 21.2215 2.61392 19.4051 2.61392 17.5443C2.61392 9.3481 9.25949 2.70253 17.4557 2.70253C25.6519 2.70253 32.2975 9.3481 32.2975 17.5443C32.3418 25.6962 25.6962 32.3418 17.5 32.3418Z" fill="url(#paint3_linear)"/>
<defs>
<linearGradient id="paint0_linear" x1="17.5" y1="-1.68355" x2="17.5" y2="35.7845" gradientUnits="userSpaceOnUse">
<stop stop-color="#00EFD1"/>
<stop offset="1" stop-color="#00ACEA"/>
</linearGradient>
<linearGradient id="paint1_linear" x1="17.5" y1="-1.68354" x2="17.5" y2="35.7845" gradientUnits="userSpaceOnUse">
<stop stop-color="#00EFD1"/>
<stop offset="1" stop-color="#00ACEA"/>
</linearGradient>
<linearGradient id="paint2_linear" x1="17.5" y1="-1.68354" x2="17.5" y2="35.7845" gradientUnits="userSpaceOnUse">
<stop stop-color="#00EFD1"/>
<stop offset="1" stop-color="#00ACEA"/>
</linearGradient>
<linearGradient id="paint3_linear" x1="17.5" y1="-1.68354" x2="17.5" y2="35.7845" gradientUnits="userSpaceOnUse">
<stop stop-color="#00EFD1"/>
<stop offset="1" stop-color="#00ACEA"/>
</linearGradient>
</defs>
</svg>
