<svg width="35" height="38" viewBox="0 0 35 38" fill="none" xmlns="http://www.w3.org/2000/svg">
<path d="M17.5 21.1553C6.2141 21.1553 0 26.5013 0 36.188C0 36.9647 0.593995 37.5587 1.37076 37.5587H33.6292C34.406 37.5587 35 36.9647 35 36.188C35 26.5013 28.7859 21.1553 17.5 21.1553ZM2.78721 34.8172C3.33551 27.5522 8.27023 23.8969 17.5 23.8969C26.7298 23.8969 31.6645 27.5522 32.2128 34.8172H2.78721Z" fill="url(#paint0_linear)"/>
<path d="M17.5 19.1449C22.5261 19.1449 26.5927 14.7128 26.5927 9.27546C26.5927 3.9752 22.6632 0 17.5 0C12.3369 0 8.40735 3.9752 8.40735 9.27546C8.40735 14.7128 12.4739 19.1449 17.5 19.1449ZM17.5 2.74151C21.1097 2.74151 23.8512 5.52872 23.8512 9.27546C23.8512 13.205 21.0183 16.4034 17.5 16.4034C13.9818 16.4034 11.1489 13.205 11.1489 9.27546C11.1489 5.48303 13.799 2.74151 17.5 2.74151Z" fill="url(#paint1_linear)"/>
<defs>
<linearGradient id="paint0_linear" x1="17.5" y1="-0.106601" x2="17.5" y2="38.2855" gradientUnits="userSpaceOnUse">
<stop stop-color="#00EFD1"/>
<stop offset="1" stop-color="#00ACEA"/>
</linearGradient>
<linearGradient id="paint1_linear" x1="17.5" y1="-0.106599" x2="17.5" y2="38.2855" gradientUnits="userSpaceOnUse">
<stop stop-color="#00EFD1"/>
<stop offset="1" stop-color="#00ACEA"/>
</linearGradient>
</defs>
</svg>
