<svg width="35" height="36" viewBox="0 0 35 36" fill="none" xmlns="http://www.w3.org/2000/svg">
<path d="M32.459 12.2951L30.6967 12.0082L31.6803 10.5738C32.582 9.38525 32.459 7.62295 31.3934 6.63935L28.2787 3.52459C27.2131 2.45902 25.5328 2.33607 24.3443 3.23771L22.9508 4.2623L22.6639 2.62295C22.459 1.10656 21.1885 0 19.6721 0H15.2869C13.7705 0 12.5 1.06557 12.2951 2.54098L12.0082 4.30328L10.5738 3.31967C9.38525 2.41803 7.62295 2.54098 6.63934 3.60656L3.56557 6.68033C2.5 7.7459 2.37705 9.42623 3.27869 10.6148L4.30328 12.0492L2.62295 12.3361C1.10656 12.541 0 13.8115 0 15.3279V19.7541C0 21.2705 1.06557 22.541 2.54098 22.7459L4.30328 23.0328L3.31967 24.4672C2.41803 25.6557 2.54098 27.418 3.60656 28.4016L6.72131 31.5164C7.29508 32.0902 8.07377 32.418 8.85246 32.418C9.5082 32.418 10.123 32.2131 10.6148 31.8033L12.0492 30.7787L12.3361 32.459C12.541 33.9754 13.8115 35.082 15.3279 35.082H19.7541C21.2705 35.082 22.541 34.0164 22.7459 32.541L23.0328 30.7787L24.4262 31.7623C24.959 32.1721 25.5738 32.3771 26.2705 32.3771C27.0902 32.3771 27.8279 32.0492 28.4016 31.4754L31.5164 28.3607C32.582 27.2951 32.7049 25.6148 31.8033 24.4262L30.7377 22.9918L32.3771 22.7049C33.8934 22.5 35 21.2295 35 19.7131V15.2869C35 13.7705 33.9344 12.5 32.459 12.2951ZM32.541 19.7131C32.541 20 32.3361 20.2049 32.0082 20.2459L28.3607 20.8607C27.9508 20.9426 27.582 21.2295 27.418 21.5984C27.2541 21.9672 27.3361 22.459 27.582 22.7869L29.8361 25.8197C30 26.0246 29.959 26.3525 29.7951 26.5574L26.6803 29.6721C26.5574 29.7951 26.4344 29.8361 26.2705 29.8361C26.1066 29.8361 26.0246 29.7951 25.8607 29.6721L22.8279 27.582C22.5 27.3361 22.0492 27.2951 21.6393 27.459C21.2295 27.623 20.9836 27.9918 20.9016 28.4016L20.2869 32.1311C20.2459 32.418 20 32.582 19.7541 32.582H15.3279C15.041 32.582 14.8361 32.3771 14.7951 32.0492L14.1803 28.4016C14.0984 27.9918 13.8115 27.623 13.4426 27.459C13.2787 27.3771 13.1148 27.3771 12.9918 27.3771C12.7459 27.3771 12.5 27.459 12.2951 27.623L9.18033 29.7951C9.05738 29.8771 8.97541 29.918 8.85246 29.918C8.72951 29.918 8.56557 29.8361 8.44262 29.7541L5.28689 26.5984C5.12295 26.4344 5.08197 26.1066 5.2459 25.9016C5.2459 25.9016 5.2459 25.8607 5.28689 25.8607L7.41803 22.8279C7.66393 22.5 7.70492 22.0492 7.54098 21.6393C7.37705 21.2295 7.0082 20.9836 6.59836 20.9016L2.86885 20.2869C2.58197 20.2459 2.41803 20 2.41803 19.7541V15.3279C2.41803 15.041 2.62295 14.8361 2.95082 14.7951L6.59836 14.1803C7.0082 14.0984 7.37705 13.8115 7.54098 13.4426C7.70492 13.0328 7.66393 12.623 7.41803 12.2541L5.20492 9.18033C5.04098 8.97541 5.08197 8.64754 5.2459 8.44262L8.40164 5.28689C8.56557 5.12295 8.89344 5.08197 9.09836 5.2459C9.09836 5.2459 9.13934 5.2459 9.13934 5.28689L12.1721 7.41803C12.5 7.66393 12.9508 7.70492 13.3607 7.54099C13.7705 7.37705 14.0164 7.0082 14.0984 6.59836L14.7131 2.86885C14.7541 2.58197 15 2.41803 15.2459 2.41803H19.6721C19.959 2.41803 20.1639 2.62295 20.2049 2.95082L20.8197 6.59836C20.9016 7.0082 21.1885 7.37705 21.5574 7.54099C21.9672 7.70492 22.418 7.66393 22.7459 7.41803L25.7787 5.2459C25.9836 5.08197 26.3115 5.12295 26.5164 5.28689L29.6721 8.44262C29.8361 8.60656 29.8771 8.93443 29.7131 9.13935C29.7131 9.13935 29.7131 9.18033 29.6721 9.18033L27.541 12.1721C27.2951 12.5 27.2541 12.9508 27.418 13.3607C27.582 13.7705 27.9508 14.0164 28.3607 14.0984L32.0492 14.7131C32.0492 14.7131 32.0492 14.7131 32.0902 14.7131C32.377 14.7541 32.541 15 32.541 15.2459V19.7131Z" fill="url(#paint0_linear)"/>
<path d="M17.5 10.2049C13.4836 10.2049 10.2049 13.4836 10.2049 17.5C10.2049 21.5164 13.4836 24.7951 17.5 24.7951C21.5164 24.7951 24.7951 21.5164 24.7951 17.5C24.7951 13.4426 21.5164 10.2049 17.5 10.2049ZM17.5 22.3361C14.836 22.3361 12.6639 20.1639 12.6639 17.5C12.6639 14.8361 14.836 12.6639 17.5 12.6639C20.1639 12.6639 22.336 14.8361 22.336 17.5C22.336 20.1639 20.1639 22.3361 17.5 22.3361Z" fill="url(#paint1_linear)"/>
<defs>
<linearGradient id="paint0_linear" x1="17.5" y1="0" x2="17.5" y2="35.15" gradientUnits="userSpaceOnUse">
<stop stop-color="#00EFD1"/>
<stop offset="1" stop-color="#00ACEA"/>
</linearGradient>
<linearGradient id="paint1_linear" x1="17.5" y1="-0.0204868" x2="17.5" y2="35.1295" gradientUnits="userSpaceOnUse">
<stop stop-color="#00EFD1"/>
<stop offset="1" stop-color="#00ACEA"/>
</linearGradient>
</defs>
</svg>
