<svg height="479pt" viewBox="-47 0 479 479.99829" width="479pt" xmlns="http://www.w3.org/2000/svg" xmlns:xlink="http://www.w3.org/1999/xlink"><linearGradient id="a"><stop offset="0" stop-color="#006df0"/><stop offset="1" stop-color="#00e7f0"/></linearGradient><linearGradient id="b" gradientUnits="userSpaceOnUse" x1="192.499145" x2="192.499145" xlink:href="#a" y1="486.016" y2="-11.64"/><linearGradient id="c" gradientUnits="userSpaceOnUse" x1="88.499145" x2="88.499145" xlink:href="#a" y1="486.016" y2="-11.64"/><path d="m328.5 0h-272c-30.914062.0351562-55.964844 25.085938-56 56v360c.046875 1.875.757812 3.671875 2.007812 5.070312 5.828126 20.597657 24.589844 34.84375 45.992188 34.929688h40v16c0 3.234375 1.949219 6.152344 4.9375 7.390625s6.429688.550781 8.71875-1.734375l18.34375-18.34375 18.34375 18.34375c2.289062 2.285156 5.726562 2.972656 8.714844 1.734375 2.992187-1.238281 4.941406-4.15625 4.941406-7.390625v-16h176c30.914062-.035156 55.964844-25.085938 56-56v-344c-.035156-30.914062-25.085938-55.9648438-56-56zm40 56v264c-.023438 19-13.390625 35.371094-32 39.199219v-342.398438c18.609375 3.828125 31.976562 20.199219 32 39.199219zm-48-40v344h-32v-344zm-304 40c.027344-22.082031 17.917969-39.972656 40-40h216v344h-224c-2.765625.011719-5.527344.265625-8.25.753906-.238281 0-.480469.054688-.710938.101563-2.554687.488281-5.0625 1.1875-7.503906 2.089843l-1.023437.367188c-2.355469.925781-4.628907 2.039062-6.808594 3.328125l-1.097656.65625c-2.152344 1.34375-4.199219 2.851563-6.117188 4.511719-.152343.136718-.335937.222656-.488281.359375zm32 384c-15.257812-.039062-28.378906-10.8125-31.386719-25.769531-.425781-2.046875-.632812-4.136719-.613281-6.230469-.035156-8.496094 3.324219-16.65625 9.332031-22.664062 6.011719-6.007813 14.167969-9.371094 22.667969-9.335938h280c1.921875 0 3.84375-.101562 5.757812-.296875.625-.0625 1.226563-.199219 1.847657-.277344 1.25-.179687 2.515625-.328125 3.738281-.585937.800781-.160156 1.511719-.390625 2.269531-.582032 1.050781-.265624 2.105469-.496093 3.121094-.800781.800781-.257812 1.601563-.585937 2.402344-.882812.925781-.335938 1.871093-.644531 2.773437-1.03125.90625-.382813 1.601563-.75 2.34375-1.128907.746094-.375 1.738282-.796874 2.578125-1.261718.839844-.464844 1.503907-.914063 2.246094-1.367188.746094-.457031 1.601563-.953125 2.402344-1.472656.796875-.519531 1.445312-1.082031 2.167969-1.601562.71875-.519532 1.453124-1.070313 2.152343-1.648438.695313-.574219 1.359375-1.230469 2.039063-1.847656.679687-.613282 1.328125-1.175782 1.953125-1.808594.070312-.078125.15625-.140625.230469-.214844v.808594c-.027344 22.082031-17.917969 39.972656-40 40h-256.023438c-4.417969 0-8 3.582031-8 8s3.582031 8 8 8h16v24zm88 12.6875-10.34375-10.34375c-3.125-3.121094-8.1875-3.121094-11.3125 0l-10.34375 10.34375v-36.6875h32zm232-52.6875c-.027344 22.082031-17.921875 39.972656-40 40h-176v-24h176c15.066406.003906 29.492188-6.085938 40-16.886719zm0 0" fill="url(#b)"/><path d="m56.5 344c4.417969 0 8-3.582031 8-8v-264c0-4.417969 3.582031-8 8-8h48c4.417969 0 8-3.582031 8-8s-3.582031-8-8-8h-48c-13.253906 0-24 10.746094-24 24v264c0 4.417969 3.582031 8 8 8zm0 0" fill="url(#c)"/></svg>