<?xml version="1.0" encoding="iso-8859-1"?>
<!-- Generator: Adobe Illustrator 19.0.0, SVG Export Plug-In . SVG Version: 6.00 Build 0)  -->
<svg version="1.1" id="Capa_1" xmlns="http://www.w3.org/2000/svg" xmlns:xlink="http://www.w3.org/1999/xlink" x="0px" y="0px"
	 viewBox="0 0 512 512" style="enable-background:new 0 0 512 512;" xml:space="preserve">
<g>
	<path style="fill:#FFE26E;" d="M228.437,449.297c-49.143-20.557-101.197-33.28-154.283-37.717L51.2,409.617v-307.2H8.533v358.4H256
		L228.437,449.297z"/>
	<path style="fill:#FFE26E;" d="M438.955,411.409c-53.12,4.412-105.233,17.084-154.453,37.547L256,460.817h247.467v-358.4H460.8
		v307.2L438.955,411.409z"/>
</g>
<g>
	<path style="fill:#FFEFB0;" d="M284.501,448.956c49.22-20.463,101.333-33.135,154.453-37.547l21.845-1.792v-358.4l-22.272,1.877
		c-53.103,4.403-105.19,17.101-154.368,37.632L256,102.417v358.4L284.501,448.956z"/>
	<path style="fill:#FFEFB0;" d="M74.155,411.58c53.086,4.437,105.139,17.161,154.283,37.717L256,460.817v-358.4l-28.16-11.691
		C178.662,70.195,126.575,57.498,73.472,53.094L51.2,51.217v358.4L74.155,411.58z"/>
</g>
<path style="fill:#231F20;" d="M503.467,93.884h-34.133V51.217c0.017-4.71-3.789-8.55-8.499-8.567c-0.247,0-0.495,0.009-0.751,0.034
	l-22.263,1.877c-53.99,4.463-106.94,17.374-156.928,38.263L256,93.175l-24.866-10.317C181.146,61.969,128.188,49.05,74.189,44.587
	l-22.272-1.903c-4.693-0.393-8.823,3.089-9.216,7.782c-0.026,0.247-0.034,0.503-0.034,0.751v42.667H8.533
	c-4.71,0-8.533,3.823-8.533,8.533v358.4c0,4.71,3.823,8.533,8.533,8.533h494.933c4.71,0,8.533-3.823,8.533-8.533v-358.4
	C512,97.707,508.177,93.884,503.467,93.884z M287.454,98.594c48.35-20.198,99.567-32.683,151.791-37.001l13.022-1.092v341.257
	l-14.02,1.143c-54.007,4.48-106.982,17.365-157.013,38.178l-16.7,6.938V108.109L287.454,98.594z M59.733,60.501l13.022,1.092
	c52.233,4.318,103.458,16.802,151.817,37.009l22.895,9.506v339.908l-15.735-6.571c-49.954-20.932-102.878-33.886-156.851-38.4
	l-15.147-1.263V60.501z M17.067,110.95h25.6v298.667c-0.017,4.446,3.379,8.158,7.808,8.533l22.963,1.963
	c6.255,0.521,12.518,1.169,18.773,1.937c2.091,0.247,4.164,0.58,6.255,0.853c4.139,0.555,8.277,1.109,12.399,1.766
	c2.458,0.393,4.907,0.853,7.356,1.289c3.738,0.657,7.475,1.314,11.196,2.048c2.56,0.512,5.12,1.075,7.68,1.63
	c3.593,0.768,7.185,1.553,10.761,2.406c2.56,0.614,5.163,1.271,7.74,1.929c3.524,0.905,7.04,1.826,10.547,2.799
	c2.56,0.717,5.12,1.468,7.68,2.219c3.482,1.033,6.955,2.099,10.419,3.209c2.534,0.811,5.069,1.638,7.595,2.492
	c3.49,1.169,6.955,2.398,10.419,3.652c2.458,0.853,4.924,1.783,7.364,2.714c1.058,0.401,2.108,0.853,3.157,1.246H17.067V110.95z
	 M494.933,452.284H299.349c1.169-0.452,2.33-0.93,3.499-1.374c2.56-0.981,5.12-1.911,7.74-2.842
	c3.345-1.212,6.707-2.389,10.078-3.524c2.628-0.853,5.274-1.707,7.91-2.56c3.371-1.075,6.758-2.099,10.146-3.106
	c2.662-0.785,5.333-1.562,8.004-2.295c3.413-0.956,6.827-1.852,10.325-2.731c2.645-0.674,5.299-1.348,7.962-1.98
	c3.55-0.853,7.125-1.621,10.701-2.381c2.56-0.555,5.12-1.126,7.731-1.638c3.755-0.742,7.526-1.399,11.29-2.057
	c2.441-0.427,4.873-0.853,7.322-1.28c4.207-0.666,8.422-1.237,12.646-1.801c2.022-0.265,4.045-0.589,6.076-0.853
	c6.255-0.759,12.544-1.399,18.867-1.937l21.854-1.775c4.437-0.367,7.851-4.079,7.834-8.533V110.95h25.6L494.933,452.284
	L494.933,452.284z"/>
<g>
</g>
<g>
</g>
<g>
</g>
<g>
</g>
<g>
</g>
<g>
</g>
<g>
</g>
<g>
</g>
<g>
</g>
<g>
</g>
<g>
</g>
<g>
</g>
<g>
</g>
<g>
</g>
<g>
</g>
</svg>
