<svg width="81" height="81" viewBox="0 0 81 81" fill="none" xmlns="http://www.w3.org/2000/svg">
<path d="M40.4388 0C18.1012 0 0 18.1012 0 40.4388C0 62.7764 18.1012 80.8776 40.4388 80.8776C62.7764 80.8776 80.8776 62.7764 80.8776 40.4388C80.8776 18.1012 62.7764 0 40.4388 0ZM40.4388 75.1006C21.2785 75.1006 5.77697 59.5991 5.77697 40.4388C5.77697 21.2785 21.2785 5.77697 40.4388 5.77697C59.5991 5.77697 75.1006 21.2785 75.1006 40.4388C75.1006 59.5991 59.5991 75.1006 40.4388 75.1006Z" fill="url(#paint0_linear)"/>
<path d="M56.8069 37.5503H43.3273V24.0707C43.3273 22.4339 42.0756 21.1822 40.4388 21.1822C38.802 21.1822 37.5503 22.4339 37.5503 24.0707V37.5503H24.0707C22.4339 37.5503 21.1823 38.802 21.1823 40.4388C21.1823 42.0756 22.4339 43.3273 24.0707 43.3273H37.5503V56.8069C37.5503 58.4437 38.802 59.6953 40.4388 59.6953C42.0756 59.6953 43.3273 58.4437 43.3273 56.8069V43.3273H56.8069C58.4437 43.3273 59.6954 42.0756 59.6954 40.4388C59.6954 38.802 58.4437 37.5503 56.8069 37.5503Z" fill="url(#paint1_linear)"/>
<defs>
<linearGradient id="paint0_linear" x1="40.4388" y1="0.320911" x2="40.4388" y2="82.1922" gradientUnits="userSpaceOnUse">
<stop stop-color="#00EFD1"/>
<stop offset="1" stop-color="#00ACEA"/>
</linearGradient>
<linearGradient id="paint1_linear" x1="40.4388" y1="0.320913" x2="40.4388" y2="82.1922" gradientUnits="userSpaceOnUse">
<stop stop-color="#00EFD1"/>
<stop offset="1" stop-color="#00ACEA"/>
</linearGradient>
</defs>
</svg>
